<svg width="430" height="517" viewBox="0 0 430 517" fill="none" xmlns="http://www.w3.org/2000/svg">
<g filter="url(#filter0_d_103_79)">
<path d="M397 89.3142C445.4 126.914 422.167 229.647 404.5 276.314H390.5C396.9 227.514 377.5 211.647 367 209.814C333 227.414 258.833 219.814 226 213.814C128.8 171.014 98.4999 237.647 95.4999 276.314H84.9999C88.5999 194.314 54.4999 157.148 36.9999 148.814C51.8 141.614 72.1666 154.148 80.4999 161.314C87.7 136.914 48.1666 92.4809 27.4999 73.3142C55.1 72.1142 74.3333 91.1475 80.4999 100.814C101.7 50.0142 38.3333 12.6475 3.99995 0.314209C32.4 -4.08579 161.833 38.8142 223 60.8142C195.8 41.2142 148.333 25.6475 128 20.3142C215.2 31.9142 273.333 52.1475 291.5 60.8142C273.1 46.4142 246.5 38.1475 235.5 35.8142C319.1 35.0142 378 71.1475 397 89.3142Z" fill="#011638"/>
</g>
<g filter="url(#filter1_d_103_79)">
<path d="M157 257.104C143.4 260.304 133.333 265.438 130 267.604C153.2 264.004 166.833 265 169 265.5C185.8 268.513 200.167 274.526 207 277.604C197 264.604 184 259.604 174 257.104C166 255.104 159.333 256.271 157 257.104Z" fill="#011638"/>
</g>
<g filter="url(#filter2_d_103_79)">
<path d="M313.143 260.675C301.073 267.711 292.947 275.563 290.393 278.61C311.527 268.384 324.855 265.35 327.073 265.195C344.02 263.164 359.517 264.715 366.952 265.66C353.588 256.152 339.694 255.171 329.4 255.704C321.165 256.131 315.131 259.196 313.143 260.675Z" fill="#011638"/>
</g>
<g filter="url(#filter3_d_103_79)">
<path d="M246.851 384C234.137 414.254 220.74 470.021 268.864 451.056C257.859 453.535 238.05 443.594 246.851 384Z" fill="#011638"/>
</g>
<g filter="url(#filter4_d_103_79)">
<path d="M289.622 486.369C263.331 499.251 224.195 493.311 202.148 487.183C199.067 486.326 196.343 489.129 198.206 491.728C212.018 510.997 258.388 510.487 282.724 507.348C283.327 507.27 283.897 507.05 284.397 506.703C295.857 498.756 296.076 491.521 293.976 487.372C293.183 485.805 291.199 485.597 289.622 486.369Z" fill="#011638"/>
</g>
<g filter="url(#filter5_d_103_79)">
<path fill-rule="evenodd" clip-rule="evenodd" d="M83.284 285C99.9507 287.667 146.584 292.4 199.784 290C212.284 294.667 247.684 301.2 289.284 290C323.117 290.667 393.784 290.6 405.784 285V302.5C405.617 306.833 402.084 317 389.284 323V367C387.617 375.5 379.584 393.5 360.784 397.5H310.284C291.117 393.833 254.184 374.7 259.784 327.5C255.784 324.5 244.284 320.3 230.284 327.5C232.617 347 226.284 388.3 182.284 397.5H130.284C122.451 395.5 105.684 386.6 101.284 367V323C94.284 320.333 80.884 309 83.284 285Z" fill="#011638"/>
</g>
<defs>
<filter id="filter0_d_103_79" x="0" y="0" width="429.861" height="284.314" filterUnits="userSpaceOnUse" color-interpolation-filters="sRGB">
<feFlood flood-opacity="0" result="BackgroundImageFix"/>
<feColorMatrix in="SourceAlpha" type="matrix" values="0 0 0 0 0 0 0 0 0 0 0 0 0 0 0 0 0 0 127 0" result="hardAlpha"/>
<feOffset dy="4"/>
<feGaussianBlur stdDeviation="2"/>
<feComposite in2="hardAlpha" operator="out"/>
<feColorMatrix type="matrix" values="0 0 0 0 0 0 0 0 0 0 0 0 0 0 0 0 0 0 0.25 0"/>
<feBlend mode="normal" in2="BackgroundImageFix" result="effect1_dropShadow_103_79"/>
<feBlend mode="normal" in="SourceGraphic" in2="effect1_dropShadow_103_79" result="shape"/>
</filter>
<filter id="filter1_d_103_79" x="126" y="256" width="85" height="29.6043" filterUnits="userSpaceOnUse" color-interpolation-filters="sRGB">
<feFlood flood-opacity="0" result="BackgroundImageFix"/>
<feColorMatrix in="SourceAlpha" type="matrix" values="0 0 0 0 0 0 0 0 0 0 0 0 0 0 0 0 0 0 127 0" result="hardAlpha"/>
<feOffset dy="4"/>
<feGaussianBlur stdDeviation="2"/>
<feComposite in2="hardAlpha" operator="out"/>
<feColorMatrix type="matrix" values="0 0 0 0 0 0 0 0 0 0 0 0 0 0 0 0 0 0 0.25 0"/>
<feBlend mode="normal" in2="BackgroundImageFix" result="effect1_dropShadow_103_79"/>
<feBlend mode="normal" in="SourceGraphic" in2="effect1_dropShadow_103_79" result="shape"/>
</filter>
<filter id="filter2_d_103_79" x="286.393" y="255.589" width="84.5591" height="31.0214" filterUnits="userSpaceOnUse" color-interpolation-filters="sRGB">
<feFlood flood-opacity="0" result="BackgroundImageFix"/>
<feColorMatrix in="SourceAlpha" type="matrix" values="0 0 0 0 0 0 0 0 0 0 0 0 0 0 0 0 0 0 127 0" result="hardAlpha"/>
<feOffset dy="4"/>
<feGaussianBlur stdDeviation="2"/>
<feComposite in2="hardAlpha" operator="out"/>
<feColorMatrix type="matrix" values="0 0 0 0 0 0 0 0 0 0 0 0 0 0 0 0 0 0 0.25 0"/>
<feBlend mode="normal" in2="BackgroundImageFix" result="effect1_dropShadow_103_79"/>
<feBlend mode="normal" in="SourceGraphic" in2="effect1_dropShadow_103_79" result="shape"/>
</filter>
<filter id="filter3_d_103_79" x="230.926" y="384" width="41.9375" height="78.9017" filterUnits="userSpaceOnUse" color-interpolation-filters="sRGB">
<feFlood flood-opacity="0" result="BackgroundImageFix"/>
<feColorMatrix in="SourceAlpha" type="matrix" values="0 0 0 0 0 0 0 0 0 0 0 0 0 0 0 0 0 0 127 0" result="hardAlpha"/>
<feOffset dy="4"/>
<feGaussianBlur stdDeviation="2"/>
<feComposite in2="hardAlpha" operator="out"/>
<feColorMatrix type="matrix" values="0 0 0 0 0 0 0 0 0 0 0 0 0 0 0 0 0 0 0.25 0"/>
<feBlend mode="normal" in2="BackgroundImageFix" result="effect1_dropShadow_103_79"/>
<feBlend mode="normal" in="SourceGraphic" in2="effect1_dropShadow_103_79" result="shape"/>
</filter>
<filter id="filter4_d_103_79" x="193.597" y="485.934" width="105.403" height="31.0663" filterUnits="userSpaceOnUse" color-interpolation-filters="sRGB">
<feFlood flood-opacity="0" result="BackgroundImageFix"/>
<feColorMatrix in="SourceAlpha" type="matrix" values="0 0 0 0 0 0 0 0 0 0 0 0 0 0 0 0 0 0 127 0" result="hardAlpha"/>
<feOffset dy="4"/>
<feGaussianBlur stdDeviation="2"/>
<feComposite in2="hardAlpha" operator="out"/>
<feColorMatrix type="matrix" values="0 0 0 0 0 0 0 0 0 0 0 0 0 0 0 0 0 0 0.25 0"/>
<feBlend mode="normal" in2="BackgroundImageFix" result="effect1_dropShadow_103_79"/>
<feBlend mode="normal" in="SourceGraphic" in2="effect1_dropShadow_103_79" result="shape"/>
</filter>
<filter id="filter5_d_103_79" x="79" y="285" width="330.784" height="120.5" filterUnits="userSpaceOnUse" color-interpolation-filters="sRGB">
<feFlood flood-opacity="0" result="BackgroundImageFix"/>
<feColorMatrix in="SourceAlpha" type="matrix" values="0 0 0 0 0 0 0 0 0 0 0 0 0 0 0 0 0 0 127 0" result="hardAlpha"/>
<feOffset dy="4"/>
<feGaussianBlur stdDeviation="2"/>
<feComposite in2="hardAlpha" operator="out"/>
<feColorMatrix type="matrix" values="0 0 0 0 0 0 0 0 0 0 0 0 0 0 0 0 0 0 0.25 0"/>
<feBlend mode="normal" in2="BackgroundImageFix" result="effect1_dropShadow_103_79"/>
<feBlend mode="normal" in="SourceGraphic" in2="effect1_dropShadow_103_79" result="shape"/>
</filter>
</defs>
</svg>
