<svg width="55" height="63" viewBox="0 0 55 63" fill="none" xmlns="http://www.w3.org/2000/svg">
<path d="M51.2372 11.0546C57.5473 15.7084 54.5183 28.424 52.215 34.2H50.3898C51.2242 28.1599 48.6949 26.1961 47.326 25.9691C42.8932 28.1475 33.2238 27.2069 28.9432 26.4642C16.2707 21.1668 12.3204 29.4141 11.9293 34.2H10.5603C11.0297 24.0507 6.58392 19.4505 4.30236 18.419C6.23191 17.5279 8.8872 19.0792 9.97366 19.9662C10.9124 16.9462 5.75821 11.4466 3.0638 9.07425C6.66214 8.92573 9.16968 11.2815 9.97366 12.478C12.7376 6.19036 4.4762 1.56541 3.8147e-06 0.0388903C3.70264 -0.505707 20.5775 4.80412 28.552 7.5271C25.0058 5.10117 18.8174 3.17445 16.1664 2.51433C27.5351 3.95009 35.1142 6.45441 37.4827 7.5271C35.0838 5.74478 31.6158 4.7216 30.1817 4.4328C41.081 4.33378 48.7601 8.80608 51.2372 11.0546Z" fill="#0066FF"/>
<path d="M19.9474 31.8223C18.1743 32.2184 16.8618 32.8538 16.4272 33.1219C19.4519 32.6764 21.2294 32.7996 21.5119 32.8615C23.7021 33.2344 25.5752 33.9787 26.4661 34.3597C25.1623 32.7506 23.4675 32.1318 22.1637 31.8223C21.1207 31.5748 20.2516 31.7192 19.9474 31.8223Z" fill="#0066FF"/>
<path d="M40.3044 32.2642C38.7307 33.1352 37.6713 34.107 37.3383 34.4841C40.0936 33.2185 41.8314 32.843 42.1206 32.8237C44.33 32.5724 46.3504 32.7643 47.3197 32.8813C45.5774 31.7045 43.766 31.5831 42.4239 31.6491C41.3503 31.7018 40.5635 32.0812 40.3044 32.2642Z" fill="#0066FF"/>
<path d="M31.6616 47.5285C30.004 51.2731 28.2574 58.1754 34.5315 55.8281C33.0967 56.1349 30.5141 54.9046 31.6616 47.5285Z" fill="#0066FF"/>
<path d="M35.1034 60.8765C34.1893 61.059 33.2253 61.1393 32.2603 61.1465C29.0663 61.1703 28.1389 62.7605 31.3271 62.9543C32.8491 63.0468 34.387 62.9885 35.6316 62.8717C36.1765 62.8205 37.1401 62.3364 37.492 61.9172C38.5051 60.7103 36.6486 60.568 35.1034 60.8765Z" fill="#0066FF"/>
<path fill-rule="evenodd" clip-rule="evenodd" d="M10.3366 35.2751C12.5095 35.6051 18.5893 36.191 25.5252 35.8939C27.1549 36.4715 31.7702 37.2802 37.1938 35.8939C41.6048 35.9764 50.8179 35.9682 52.3824 35.2751V37.4411C52.3607 37.9774 51.9 39.2358 50.2312 39.9784V45.4244C50.0139 46.4764 48.9666 48.7043 46.5155 49.1994H39.9316C37.4328 48.7456 32.6176 46.3774 33.3477 40.5354C32.8262 40.164 31.3269 39.6442 29.5017 40.5354C29.8059 42.9489 28.9802 48.0607 23.2437 49.1994H16.4642C15.4429 48.9519 13.257 47.8503 12.6833 45.4244V39.9784C11.7707 39.6483 10.0237 38.2456 10.3366 35.2751Z" fill="#0066FF"/>
</svg>
