<svg width="1039" height="517" viewBox="0 0 1039 517" fill="none" xmlns="http://www.w3.org/2000/svg">
<g filter="url(#filter0_d_103_96)">
<path d="M608.854 158C607.854 154.939 606.536 152.197 604.9 149.773C603.293 147.318 601.369 145.227 599.127 143.5C596.915 141.773 594.4 140.455 591.581 139.545C588.763 138.636 585.672 138.182 582.309 138.182C576.793 138.182 571.778 139.606 567.263 142.455C562.748 145.303 559.157 149.5 556.49 155.045C553.824 160.591 552.49 167.394 552.49 175.455C552.49 183.515 553.839 190.318 556.536 195.864C559.233 201.409 562.884 205.606 567.49 208.455C572.097 211.303 577.278 212.727 583.036 212.727C588.369 212.727 593.066 211.591 597.127 209.318C601.218 207.015 604.4 203.773 606.672 199.591C608.975 195.379 610.127 190.424 610.127 184.727L613.581 185.455H585.581V175.455H621.036V185.455C621.036 193.121 619.4 199.788 616.127 205.455C612.884 211.121 608.4 215.515 602.672 218.636C596.975 221.727 590.43 223.273 583.036 223.273C574.793 223.273 567.551 221.333 561.309 217.455C555.097 213.576 550.248 208.061 546.763 200.909C543.309 193.758 541.581 185.273 541.581 175.455C541.581 168.091 542.566 161.47 544.536 155.591C546.536 149.682 549.354 144.652 552.99 140.5C556.627 136.348 560.93 133.167 565.9 130.955C570.869 128.742 576.339 127.636 582.309 127.636C587.218 127.636 591.793 128.379 596.036 129.864C600.309 131.318 604.112 133.394 607.445 136.091C610.809 138.758 613.612 141.955 615.854 145.682C618.097 149.379 619.642 153.485 620.49 158H608.854ZM688.001 223.455C681.274 223.455 675.471 221.97 670.592 219C665.743 216 662.001 211.818 659.365 206.455C656.758 201.061 655.455 194.788 655.455 187.636C655.455 180.485 656.758 174.182 659.365 168.727C662.001 163.242 665.668 158.97 670.365 155.909C675.092 152.818 680.607 151.273 686.91 151.273C690.546 151.273 694.137 151.879 697.683 153.091C701.228 154.303 704.455 156.273 707.365 159C710.274 161.697 712.592 165.273 714.319 169.727C716.046 174.182 716.91 179.667 716.91 186.182V190.727H663.092V181.455H706.001C706.001 177.515 705.213 174 703.637 170.909C702.092 167.818 699.88 165.379 697.001 163.591C694.152 161.803 690.789 160.909 686.91 160.909C682.637 160.909 678.94 161.97 675.819 164.091C672.728 166.182 670.349 168.909 668.683 172.273C667.016 175.636 666.183 179.242 666.183 183.091V189.273C666.183 194.545 667.092 199.015 668.91 202.682C670.758 206.318 673.319 209.091 676.592 211C679.865 212.879 683.668 213.818 688.001 213.818C690.819 213.818 693.365 213.424 695.637 212.636C697.94 211.818 699.925 210.606 701.592 209C703.258 207.364 704.546 205.333 705.455 202.909L715.819 205.818C714.728 209.333 712.895 212.424 710.319 215.091C707.743 217.727 704.562 219.788 700.774 221.273C696.986 222.727 692.728 223.455 688.001 223.455ZM782.341 223.455C775.614 223.455 769.811 221.97 764.932 219C760.083 216 756.341 211.818 753.705 206.455C751.098 201.061 749.795 194.788 749.795 187.636C749.795 180.485 751.098 174.182 753.705 168.727C756.341 163.242 760.008 158.97 764.705 155.909C769.432 152.818 774.947 151.273 781.25 151.273C784.886 151.273 788.477 151.879 792.023 153.091C795.568 154.303 798.795 156.273 801.705 159C804.614 161.697 806.932 165.273 808.659 169.727C810.386 174.182 811.25 179.667 811.25 186.182V190.727H757.432V181.455H800.341C800.341 177.515 799.553 174 797.977 170.909C796.432 167.818 794.22 165.379 791.341 163.591C788.492 161.803 785.129 160.909 781.25 160.909C776.977 160.909 773.28 161.97 770.159 164.091C767.068 166.182 764.689 168.909 763.023 172.273C761.356 175.636 760.523 179.242 760.523 183.091V189.273C760.523 194.545 761.432 199.015 763.25 202.682C765.098 206.318 767.659 209.091 770.932 211C774.205 212.879 778.008 213.818 782.341 213.818C785.159 213.818 787.705 213.424 789.977 212.636C792.28 211.818 794.265 210.606 795.932 209C797.598 207.364 798.886 205.333 799.795 202.909L810.159 205.818C809.068 209.333 807.235 212.424 804.659 215.091C802.083 217.727 798.902 219.788 795.114 221.273C791.326 222.727 787.068 223.455 782.341 223.455ZM857.408 196.545L857.226 183.273H859.408L889.954 152.182H903.226L870.681 185.091H869.772L857.408 196.545ZM847.408 222V128.909H858.135V222H847.408ZM891.772 222L864.499 187.455L872.135 180L905.408 222H891.772ZM481.485 288.909H494.94L526.576 366.182H527.667L559.303 288.909H572.758V382H562.212V311.273H561.303L532.212 382H522.031L492.94 311.273H492.031V382H481.485V288.909ZM634.291 383.636C629.867 383.636 625.852 382.803 622.246 381.136C618.64 379.439 615.776 377 613.655 373.818C611.534 370.606 610.473 366.727 610.473 362.182C610.473 358.182 611.261 354.939 612.837 352.455C614.412 349.939 616.518 347.97 619.155 346.545C621.791 345.121 624.7 344.061 627.882 343.364C631.094 342.636 634.321 342.061 637.564 341.636C641.806 341.091 645.246 340.682 647.882 340.409C650.549 340.106 652.488 339.606 653.7 338.909C654.943 338.212 655.564 337 655.564 335.273V334.909C655.564 330.424 654.337 326.939 651.882 324.455C649.458 321.97 645.776 320.727 640.837 320.727C635.715 320.727 631.7 321.848 628.791 324.091C625.882 326.333 623.837 328.727 622.655 331.273L612.473 327.636C614.291 323.394 616.715 320.091 619.746 317.727C622.806 315.333 626.14 313.667 629.746 312.727C633.382 311.758 636.958 311.273 640.473 311.273C642.715 311.273 645.291 311.545 648.2 312.091C651.14 312.606 653.973 313.682 656.7 315.318C659.458 316.955 661.746 319.424 663.564 322.727C665.382 326.03 666.291 330.455 666.291 336V382H655.564V372.545H655.018C654.291 374.061 653.079 375.682 651.382 377.409C649.685 379.136 647.427 380.606 644.609 381.818C641.791 383.03 638.352 383.636 634.291 383.636ZM635.927 374C640.17 374 643.746 373.167 646.655 371.5C649.594 369.833 651.806 367.682 653.291 365.045C654.806 362.409 655.564 359.636 655.564 356.727V346.909C655.109 347.455 654.109 347.955 652.564 348.409C651.049 348.833 649.291 349.212 647.291 349.545C645.321 349.848 643.397 350.121 641.518 350.364C639.67 350.576 638.17 350.758 637.018 350.909C634.231 351.273 631.624 351.864 629.2 352.682C626.806 353.47 624.867 354.667 623.382 356.273C621.927 357.848 621.2 360 621.2 362.727C621.2 366.455 622.579 369.273 625.337 371.182C628.124 373.061 631.655 374 635.927 374ZM705.711 382V312.182H716.074V322.727H716.802C718.074 319.273 720.377 316.47 723.711 314.318C727.044 312.167 730.802 311.091 734.983 311.091C735.771 311.091 736.756 311.106 737.938 311.136C739.12 311.167 740.014 311.212 740.62 311.273V322.182C740.256 322.091 739.423 321.955 738.12 321.773C736.847 321.561 735.499 321.455 734.074 321.455C730.68 321.455 727.65 322.167 724.983 323.591C722.347 324.985 720.256 326.924 718.711 329.409C717.196 331.864 716.438 334.667 716.438 337.818V382H705.711ZM783.176 356.545L782.994 343.273H785.176L815.721 312.182H828.994L796.448 345.091H795.539L783.176 356.545ZM773.176 382V288.909H783.903V382H773.176ZM817.539 382L790.267 347.455L797.903 340L831.176 382H817.539ZM889.038 383.455C882.311 383.455 876.508 381.97 871.629 379C866.781 376 863.038 371.818 860.402 366.455C857.796 361.061 856.493 354.788 856.493 347.636C856.493 340.485 857.796 334.182 860.402 328.727C863.038 323.242 866.705 318.97 871.402 315.909C876.129 312.818 881.644 311.273 887.947 311.273C891.584 311.273 895.175 311.879 898.72 313.091C902.266 314.303 905.493 316.273 908.402 319C911.311 321.697 913.629 325.273 915.357 329.727C917.084 334.182 917.947 339.667 917.947 346.182V350.727H864.129V341.455H907.038C907.038 337.515 906.251 334 904.675 330.909C903.129 327.818 900.917 325.379 898.038 323.591C895.19 321.803 891.826 320.909 887.947 320.909C883.675 320.909 879.978 321.97 876.857 324.091C873.766 326.182 871.387 328.909 869.72 332.273C868.054 335.636 867.22 339.242 867.22 343.091V349.273C867.22 354.545 868.129 359.015 869.947 362.682C871.796 366.318 874.357 369.091 877.629 371C880.902 372.879 884.705 373.818 889.038 373.818C891.857 373.818 894.402 373.424 896.675 372.636C898.978 371.818 900.963 370.606 902.629 369C904.296 367.364 905.584 365.333 906.493 362.909L916.857 365.818C915.766 369.333 913.932 372.424 911.357 375.091C908.781 377.727 905.599 379.788 901.811 381.273C898.023 382.727 893.766 383.455 889.038 383.455ZM984.469 312.182V321.273H948.287V312.182H984.469ZM958.833 295.455H969.56V362C969.56 365.03 970 367.303 970.878 368.818C971.787 370.303 972.939 371.303 974.333 371.818C975.757 372.303 977.257 372.545 978.833 372.545C980.015 372.545 980.984 372.485 981.742 372.364C982.5 372.212 983.106 372.091 983.56 372L985.742 381.636C985.015 381.909 984 382.182 982.697 382.455C981.394 382.758 979.742 382.909 977.742 382.909C974.712 382.909 971.742 382.258 968.833 380.955C965.954 379.652 963.56 377.667 961.651 375C959.772 372.333 958.833 368.97 958.833 364.909V295.455Z" fill="#011638"/>
<path d="M533.945 247.455H927.066V256.182H533.945V247.455ZM470.212 407.455H990.833V416.182H470.212V407.455Z" fill="#011638"/>
</g>
<g filter="url(#filter1_d_103_96)">
<path d="M415 89.3142C463.4 126.914 440.167 229.647 422.5 276.314H408.5C414.9 227.514 395.5 211.647 385 209.814C351 227.414 276.833 219.814 244 213.814C146.8 171.014 116.5 237.647 113.5 276.314H103C106.6 194.314 72.5 157.148 55 148.814C69.8 141.614 90.1667 154.148 98.5 161.314C105.7 136.914 66.1667 92.4809 45.5 73.3142C73.1 72.1142 92.3333 91.1475 98.5 100.814C119.7 50.0142 56.3334 12.6475 22 0.314209C50.4 -4.08579 179.833 38.8142 241 60.8142C213.8 41.2142 166.333 25.6475 146 20.3142C233.2 31.9142 291.333 52.1475 309.5 60.8142C291.1 46.4142 264.5 38.1475 253.5 35.8142C337.1 35.0142 396 71.1475 415 89.3142Z" fill="#011638"/>
</g>
<g filter="url(#filter2_d_103_96)">
<path d="M175 257.104C161.4 260.304 151.333 265.438 148 267.604C171.2 264.004 184.833 265 187 265.5C203.8 268.513 218.167 274.526 225 277.604C215 264.604 202 259.604 192 257.104C184 255.104 177.333 256.271 175 257.104Z" fill="#011638"/>
</g>
<g filter="url(#filter3_d_103_96)">
<path d="M331.143 260.675C319.073 267.711 310.947 275.563 308.393 278.61C329.527 268.384 342.855 265.35 345.073 265.195C362.02 263.164 377.517 264.715 384.952 265.66C371.588 256.152 357.694 255.171 347.4 255.704C339.165 256.131 333.131 259.196 331.143 260.675Z" fill="#011638"/>
</g>
<g filter="url(#filter4_d_103_96)">
<path d="M264.851 384C252.137 414.254 238.74 470.021 286.864 451.056C275.859 453.535 256.05 443.594 264.851 384Z" fill="#011638"/>
</g>
<g filter="url(#filter5_d_103_96)">
<path d="M307.622 486.369C281.331 499.251 242.195 493.311 220.148 487.183C217.067 486.326 214.343 489.129 216.206 491.728C230.018 510.997 276.388 510.487 300.724 507.348C301.327 507.27 301.897 507.05 302.397 506.703C313.857 498.756 314.075 491.521 311.976 487.372C311.183 485.805 309.199 485.597 307.622 486.369Z" fill="#011638"/>
</g>
<g filter="url(#filter6_d_103_96)">
<path fill-rule="evenodd" clip-rule="evenodd" d="M101.284 285C117.951 287.667 164.584 292.4 217.784 290C230.284 294.667 265.684 301.2 307.284 290C341.117 290.667 411.784 290.6 423.784 285V302.5C423.617 306.833 420.084 317 407.284 323V367C405.617 375.5 397.584 393.5 378.784 397.5H328.284C309.117 393.833 272.184 374.7 277.784 327.5C273.784 324.5 262.284 320.3 248.284 327.5C250.617 347 244.284 388.3 200.284 397.5H148.284C140.451 395.5 123.684 386.6 119.284 367V323C112.284 320.333 98.884 309 101.284 285Z" fill="#011638"/>
</g>
<defs>
<filter id="filter0_d_103_96" x="468.212" y="127.636" width="528.62" height="297.545" filterUnits="userSpaceOnUse" color-interpolation-filters="sRGB">
<feFlood flood-opacity="0" result="BackgroundImageFix"/>
<feColorMatrix in="SourceAlpha" type="matrix" values="0 0 0 0 0 0 0 0 0 0 0 0 0 0 0 0 0 0 127 0" result="hardAlpha"/>
<feOffset dx="2" dy="5"/>
<feGaussianBlur stdDeviation="2"/>
<feComposite in2="hardAlpha" operator="out"/>
<feColorMatrix type="matrix" values="0 0 0 0 0 0 0 0 0 0 0 0 0 0 0 0 0 0 0.25 0"/>
<feBlend mode="normal" in2="BackgroundImageFix" result="effect1_dropShadow_103_96"/>
<feBlend mode="normal" in="SourceGraphic" in2="effect1_dropShadow_103_96" result="shape"/>
</filter>
<filter id="filter1_d_103_96" x="18" y="0" width="429.861" height="284.314" filterUnits="userSpaceOnUse" color-interpolation-filters="sRGB">
<feFlood flood-opacity="0" result="BackgroundImageFix"/>
<feColorMatrix in="SourceAlpha" type="matrix" values="0 0 0 0 0 0 0 0 0 0 0 0 0 0 0 0 0 0 127 0" result="hardAlpha"/>
<feOffset dy="4"/>
<feGaussianBlur stdDeviation="2"/>
<feComposite in2="hardAlpha" operator="out"/>
<feColorMatrix type="matrix" values="0 0 0 0 0 0 0 0 0 0 0 0 0 0 0 0 0 0 0.25 0"/>
<feBlend mode="normal" in2="BackgroundImageFix" result="effect1_dropShadow_103_96"/>
<feBlend mode="normal" in="SourceGraphic" in2="effect1_dropShadow_103_96" result="shape"/>
</filter>
<filter id="filter2_d_103_96" x="144" y="256" width="85" height="29.6043" filterUnits="userSpaceOnUse" color-interpolation-filters="sRGB">
<feFlood flood-opacity="0" result="BackgroundImageFix"/>
<feColorMatrix in="SourceAlpha" type="matrix" values="0 0 0 0 0 0 0 0 0 0 0 0 0 0 0 0 0 0 127 0" result="hardAlpha"/>
<feOffset dy="4"/>
<feGaussianBlur stdDeviation="2"/>
<feComposite in2="hardAlpha" operator="out"/>
<feColorMatrix type="matrix" values="0 0 0 0 0 0 0 0 0 0 0 0 0 0 0 0 0 0 0.25 0"/>
<feBlend mode="normal" in2="BackgroundImageFix" result="effect1_dropShadow_103_96"/>
<feBlend mode="normal" in="SourceGraphic" in2="effect1_dropShadow_103_96" result="shape"/>
</filter>
<filter id="filter3_d_103_96" x="304.393" y="255.588" width="84.5592" height="31.0214" filterUnits="userSpaceOnUse" color-interpolation-filters="sRGB">
<feFlood flood-opacity="0" result="BackgroundImageFix"/>
<feColorMatrix in="SourceAlpha" type="matrix" values="0 0 0 0 0 0 0 0 0 0 0 0 0 0 0 0 0 0 127 0" result="hardAlpha"/>
<feOffset dy="4"/>
<feGaussianBlur stdDeviation="2"/>
<feComposite in2="hardAlpha" operator="out"/>
<feColorMatrix type="matrix" values="0 0 0 0 0 0 0 0 0 0 0 0 0 0 0 0 0 0 0.25 0"/>
<feBlend mode="normal" in2="BackgroundImageFix" result="effect1_dropShadow_103_96"/>
<feBlend mode="normal" in="SourceGraphic" in2="effect1_dropShadow_103_96" result="shape"/>
</filter>
<filter id="filter4_d_103_96" x="248.926" y="384" width="41.9375" height="78.9017" filterUnits="userSpaceOnUse" color-interpolation-filters="sRGB">
<feFlood flood-opacity="0" result="BackgroundImageFix"/>
<feColorMatrix in="SourceAlpha" type="matrix" values="0 0 0 0 0 0 0 0 0 0 0 0 0 0 0 0 0 0 127 0" result="hardAlpha"/>
<feOffset dy="4"/>
<feGaussianBlur stdDeviation="2"/>
<feComposite in2="hardAlpha" operator="out"/>
<feColorMatrix type="matrix" values="0 0 0 0 0 0 0 0 0 0 0 0 0 0 0 0 0 0 0.25 0"/>
<feBlend mode="normal" in2="BackgroundImageFix" result="effect1_dropShadow_103_96"/>
<feBlend mode="normal" in="SourceGraphic" in2="effect1_dropShadow_103_96" result="shape"/>
</filter>
<filter id="filter5_d_103_96" x="211.597" y="485.934" width="105.403" height="31.0664" filterUnits="userSpaceOnUse" color-interpolation-filters="sRGB">
<feFlood flood-opacity="0" result="BackgroundImageFix"/>
<feColorMatrix in="SourceAlpha" type="matrix" values="0 0 0 0 0 0 0 0 0 0 0 0 0 0 0 0 0 0 127 0" result="hardAlpha"/>
<feOffset dy="4"/>
<feGaussianBlur stdDeviation="2"/>
<feComposite in2="hardAlpha" operator="out"/>
<feColorMatrix type="matrix" values="0 0 0 0 0 0 0 0 0 0 0 0 0 0 0 0 0 0 0.25 0"/>
<feBlend mode="normal" in2="BackgroundImageFix" result="effect1_dropShadow_103_96"/>
<feBlend mode="normal" in="SourceGraphic" in2="effect1_dropShadow_103_96" result="shape"/>
</filter>
<filter id="filter6_d_103_96" x="97" y="285" width="330.784" height="120.5" filterUnits="userSpaceOnUse" color-interpolation-filters="sRGB">
<feFlood flood-opacity="0" result="BackgroundImageFix"/>
<feColorMatrix in="SourceAlpha" type="matrix" values="0 0 0 0 0 0 0 0 0 0 0 0 0 0 0 0 0 0 127 0" result="hardAlpha"/>
<feOffset dy="4"/>
<feGaussianBlur stdDeviation="2"/>
<feComposite in2="hardAlpha" operator="out"/>
<feColorMatrix type="matrix" values="0 0 0 0 0 0 0 0 0 0 0 0 0 0 0 0 0 0 0.25 0"/>
<feBlend mode="normal" in2="BackgroundImageFix" result="effect1_dropShadow_103_96"/>
<feBlend mode="normal" in="SourceGraphic" in2="effect1_dropShadow_103_96" result="shape"/>
</filter>
</defs>
</svg>
